<svg width="798" height="798" viewBox="0 0 798 798" fill="none" xmlns="http://www.w3.org/2000/svg">
<path d="M798 0H0V798H798V0Z" fill="#3E2782"/>
<path d="M151.962 548.454L134.292 552.045C134.178 552.045 134.064 552.216 134.064 552.33V554.667V557.004V574.617C132.753 573.99 130.815 574.104 128.934 575.073C126.369 576.441 125.001 578.892 125.856 580.602C126.768 582.312 129.561 582.597 132.126 581.229C134.292 580.089 135.717 578.208 135.66 576.612V556.947C135.66 556.833 135.774 556.719 135.888 556.719L151.62 553.47C151.791 553.413 151.905 553.584 151.905 553.698V570.114C150.594 569.487 148.656 569.601 146.775 570.57C144.21 571.938 142.842 574.389 143.697 576.099C144.609 577.809 147.402 578.094 149.967 576.726C152.133 575.586 153.444 573.705 153.273 572.109V548.511C153.273 548.34 153.102 548.169 152.931 548.226L151.962 548.454Z" fill="#1B1464"/>
<path d="M648.147 628.995L630.477 632.586C630.363 632.586 630.249 632.757 630.249 632.871V635.208V637.545V655.158C628.938 654.531 627 654.645 625.119 655.614C622.554 656.982 621.186 659.433 622.041 661.143C622.953 662.853 625.746 663.138 628.311 661.77C630.477 660.63 631.902 658.749 631.845 657.153V637.488C631.845 637.374 631.959 637.26 632.073 637.26L647.805 634.068C647.976 634.011 648.09 634.182 648.09 634.296V650.712C646.779 650.085 644.841 650.199 642.96 651.168C640.395 652.536 639.027 654.987 639.882 656.697C640.794 658.407 643.587 658.692 646.152 657.324C648.318 656.184 649.629 654.303 649.458 652.707V629.109C649.458 628.938 649.287 628.767 649.116 628.824L648.147 628.995Z" fill="#1B1464"/>
<path d="M499.491 513.057C499.377 511.746 498.864 510.549 498.066 509.694C496.698 508.155 494.703 507.699 492.822 507.87C490.143 508.155 487.179 510.891 484.785 508.155C484.614 507.87 484.044 507.813 483.759 507.87C483.531 507.927 483.531 508.212 483.531 508.497C483.531 508.554 483.531 508.611 483.531 508.725C483.531 508.725 483.531 508.725 483.531 508.782V532.095C482.163 531.411 480.054 531.525 478.059 532.551C475.323 533.976 473.841 536.598 474.753 538.422C475.722 540.246 478.686 540.531 481.479 539.106C483.759 537.909 484.899 535.857 484.899 534.204V513.684C487.008 514.083 489.288 513.114 490.884 512.487C492.138 511.974 493.449 511.005 494.76 511.062C496.755 511.176 496.527 513.342 497.04 515.166C497.211 515.793 497.553 516.306 498.009 516.534C499.719 517.218 499.662 514.311 499.491 513.057Z" fill="#1B1464"/>
<path d="M380.532 625.233H265.392C254.847 625.233 246.297 616.683 246.297 606.138H249.888C249.888 614.688 256.842 621.699 265.449 621.699H380.589V625.233H380.532Z" fill="#ED174C"/>
<path d="M396.036 557.859H392.445V503.082C392.445 491.226 402.078 481.65 413.877 481.65H452.466C462.327 481.65 470.364 473.613 470.364 463.752V439.812H473.955V463.752C473.955 475.608 464.322 485.184 452.523 485.184H413.934C404.073 485.184 396.036 493.221 396.036 503.082V557.859Z" fill="#1B1464"/>
<g opacity="0.8">
<g opacity="0.8">
<path opacity="0.8" d="M294.462 581.457L88.9198 582.084C85.5568 582.084 82.8208 580.83 82.8208 579.348C82.8208 577.809 85.5568 576.555 88.9198 576.612L294.462 577.239V581.457Z" fill="#0A0826"/>
</g>
<g opacity="0.8">
<path opacity="0.8" d="M294.633 583.11C299.701 583.11 303.81 581.4 303.81 579.291C303.81 577.182 299.701 575.472 294.633 575.472C289.565 575.472 285.456 577.182 285.456 579.291C285.456 581.4 289.565 583.11 294.633 583.11Z" fill="#0A0826"/>
</g>
<g opacity="0.8">
<path opacity="0.8" d="M294.462 611.04L88.9198 611.667C85.5568 611.667 82.8208 610.413 82.8208 608.931C82.8208 607.392 85.5568 606.138 88.9198 606.195L294.462 606.822V611.04Z" fill="#0A0826"/>
</g>
<g opacity="0.8">
<path opacity="0.8" d="M294.633 612.75C299.701 612.75 303.81 611.04 303.81 608.931C303.81 606.822 299.701 605.112 294.633 605.112C289.565 605.112 285.456 606.822 285.456 608.931C285.456 611.04 289.565 612.75 294.633 612.75Z" fill="#0A0826"/>
</g>
</g>
<g opacity="0.8">
<path opacity="0.8" d="M361.722 535.629V541.557V555.066H372.894V653.334H361.722V666.843H587.784V653.334H576.555V555.066H587.784V541.557V535.629H361.722Z" fill="#0A0826"/>
</g>
<path d="M685.767 485.184H517.332C502.854 485.184 491.055 473.385 491.055 458.907V444.144H494.646V458.85C494.646 471.39 504.849 481.593 517.389 481.593H685.824V485.184H685.767Z" fill="#FCEE21"/>
<g opacity="0.6">
<path opacity="0.6" fill-rule="evenodd" clip-rule="evenodd" d="M705.432 411.483C705.603 411.483 705.774 411.483 705.945 411.426C708.396 411.141 710.334 409.089 710.334 406.524C710.334 403.788 708.111 401.622 705.432 401.622H700.53C700.587 401.622 700.587 401.622 700.644 401.622C703.323 401.565 705.489 399.399 705.489 396.72C705.489 393.984 703.266 391.818 700.587 391.818C703.323 391.818 705.489 389.595 705.489 386.916C705.489 384.351 703.551 382.299 701.1 382.014C700.929 382.014 700.758 382.014 700.587 382.014L705.375 338.865C705.432 338.523 705.489 338.181 705.489 337.839C705.489 335.103 703.266 332.937 700.587 332.937H705.489C708.225 332.937 710.391 330.714 710.391 328.035C710.391 325.299 708.168 323.133 705.489 323.133H690.726H675.963C673.227 323.133 671.061 325.356 671.061 328.035C671.061 330.771 673.284 332.937 675.963 332.937H680.865C678.129 332.937 675.963 335.16 675.963 337.839C675.963 338.181 676.02 338.523 676.077 338.865L680.865 382.014H690.669H680.865C678.129 382.014 675.963 384.237 675.963 386.916C675.963 389.652 678.186 391.818 680.865 391.818C678.129 391.818 675.963 394.041 675.963 396.72C675.963 399.456 678.186 401.622 680.865 401.622H675.963C673.227 401.622 671.061 403.845 671.061 406.524C671.061 409.26 673.284 411.426 675.963 411.426V440.895C673.227 440.895 671.061 443.118 671.061 445.797C671.061 448.533 673.284 450.699 675.963 450.699H680.865V558.771C678.129 558.771 675.963 560.994 675.963 563.673C675.963 566.409 678.186 568.575 680.865 568.575C675.45 568.575 671.061 572.964 671.061 578.379C671.061 583.794 675.45 588.183 680.865 588.183C678.129 588.183 675.963 590.406 675.963 593.085C675.963 595.821 678.186 597.987 680.865 597.987V627.456V637.26C678.129 637.26 675.963 639.483 675.963 642.162C675.963 642.618 676.02 643.017 676.134 643.416L679.668 668.154C680.352 672.999 684.513 676.59 689.415 676.59H690.726H692.037C696.939 676.59 701.1 672.999 701.784 668.154L705.318 643.416C705.432 643.017 705.489 642.618 705.489 642.162C705.489 639.426 703.266 637.26 700.587 637.26V597.93C703.323 597.93 705.489 595.707 705.489 593.028C705.489 590.292 703.266 588.126 700.587 588.126C706.002 588.126 710.391 583.737 710.391 578.322C710.391 572.907 706.002 568.518 700.587 568.518C703.323 568.518 705.489 566.295 705.489 563.616C705.489 560.88 703.266 558.714 700.587 558.714V450.813H705.489C708.225 450.813 710.391 448.59 710.391 445.911C710.391 443.175 708.168 441.009 705.489 441.009V411.483H705.432Z" fill="#0A0826"/>
</g>
<path d="M685.767 409.032H650.484C637.032 409.032 626.088 398.088 626.088 384.636V257.811H629.679V384.636C629.679 396.15 639.027 405.498 650.541 405.498H685.824V409.032H685.767Z" fill="#ED174C"/>
<path d="M533.919 401.28H519.441V397.689H533.919C540.018 397.689 545.034 392.73 545.034 386.631V305.634C545.034 298.566 550.791 292.866 557.802 292.866H597.93C603.858 292.866 608.646 288.078 608.646 282.15V257.811H612.237V282.15C612.237 290.016 605.853 296.4 597.987 296.4H557.859C552.786 296.4 548.625 300.561 548.625 305.634V386.631C548.625 394.668 542.013 401.28 533.919 401.28Z" fill="#FCEE21"/>
<path d="M485.07 343.083C487.431 343.083 489.345 341.654 489.345 339.891C489.345 338.128 487.431 336.699 485.07 336.699C482.709 336.699 480.795 338.128 480.795 339.891C480.795 341.654 482.709 343.083 485.07 343.083Z" fill="#ED174C"/>
<g opacity="0.6">
<path opacity="0.6" d="M579.975 318.288H579.747H577.923H564.072H562.02H548.169H546.06H532.209H530.784H529.587C529.359 318.288 529.131 318.288 528.903 318.288C523.944 318.63 519.897 322.506 519.384 327.408H519.327H517.275C515.85 327.408 514.653 328.548 514.653 330.03V332.31L413.421 333.222L402.363 333.336L381.729 333.507C378.138 333.507 375.231 336.414 375.231 340.005C375.231 341.829 375.972 343.425 377.112 344.622C378.309 345.819 379.905 346.503 381.672 346.503L402.306 346.674L413.364 346.788L486.438 347.415C487.065 348.555 488.604 349.353 490.371 349.353C492.081 349.353 493.563 348.612 494.247 347.529L514.653 347.7V349.923C514.653 351.348 515.793 352.545 517.275 352.545H519.327H519.384C519.897 357.447 523.944 361.323 528.903 361.665C529.131 361.665 529.359 361.665 529.587 361.665H530.784H532.209H546.06H548.169H562.02H564.129H577.98H579.804H580.032C585.561 361.551 590.064 356.991 590.064 351.405V328.662C590.007 322.962 585.561 318.402 579.975 318.288Z" fill="#0A0826"/>
</g>
<g opacity="0.6">
<path opacity="0.6" d="M525.654 399.057H474.24C468.54 399.057 463.809 402.99 462.498 408.234H263.625C253.536 364.743 214.548 332.367 167.979 332.367C113.772 332.367 69.7681 376.314 69.7681 430.578C69.7681 465.576 88.1221 496.356 115.71 513.741C118.503 515.508 121.41 517.161 124.431 518.643C128.478 520.638 132.639 522.348 136.971 523.83C140.049 524.856 143.241 525.768 146.49 526.452C150.936 527.421 155.496 528.162 160.17 528.504C162.735 528.732 165.357 528.789 167.979 528.789C168.834 528.789 169.689 528.789 170.544 528.732C215.973 527.592 253.707 495.558 263.625 452.865H462.555C463.866 458.109 468.597 462.042 474.297 462.042H525.711C532.38 462.042 537.852 456.627 537.852 449.901V411.198C537.795 404.529 532.38 399.057 525.654 399.057Z" fill="#0A0826"/>
</g>
<path d="M279.072 371.07H223.896V366.339H279.072C288.705 366.339 296.514 358.53 296.514 348.897V257.811H301.245V348.84C301.302 361.095 291.327 371.07 279.072 371.07Z" fill="#1B1464"/>
<path d="M477.375 396.834C480.995 396.834 483.93 393.899 483.93 390.279C483.93 386.659 480.995 383.724 477.375 383.724C473.755 383.724 470.82 386.659 470.82 390.279C470.82 393.899 473.755 396.834 477.375 396.834Z" fill="#1B1464"/>
<path d="M504.906 396.834C508.526 396.834 511.461 393.899 511.461 390.279C511.461 386.659 508.526 383.724 504.906 383.724C501.286 383.724 498.351 386.659 498.351 390.279C498.351 393.899 501.286 396.834 504.906 396.834Z" fill="#1B1464"/>
<path d="M477.375 459.819C480.995 459.819 483.93 456.884 483.93 453.264C483.93 449.644 480.995 446.709 477.375 446.709C473.755 446.709 470.82 449.644 470.82 453.264C470.82 456.884 473.755 459.819 477.375 459.819Z" fill="#1B1464"/>
<path d="M504.906 459.819C508.526 459.819 511.461 456.884 511.461 453.264C511.461 449.644 508.526 446.709 504.906 446.709C501.286 446.709 498.351 449.644 498.351 453.264C498.351 456.884 501.286 459.819 504.906 459.819Z" fill="#1B1464"/>
<path d="M733.02 142.044H574.161C568.917 142.044 564.642 146.319 564.642 151.563V257.982C564.642 263.226 568.917 267.501 574.161 267.501H733.02C738.264 267.501 742.539 263.226 742.539 257.982V151.563C742.539 146.262 738.264 142.044 733.02 142.044Z" fill="#0A0826"/>
<path d="M266.646 140.961H262.713V134.121C262.713 126.996 268.527 121.182 275.652 121.182H387.087C394.212 121.182 400.026 126.996 400.026 134.121V135.546H396.093V134.121C396.093 129.162 392.046 125.115 387.087 125.115H275.595C270.636 125.115 266.589 129.162 266.589 134.121V140.961H266.646Z" fill="#FCEE21"/>
<path d="M583.224 279.129H429.495C422.37 279.129 416.556 273.315 416.556 266.19V259.35H420.489V266.19C420.489 271.149 424.536 275.196 429.495 275.196H583.281C588.24 275.196 592.287 271.149 592.287 266.19V257.811H596.22V266.19C596.163 273.315 590.349 279.129 583.224 279.129Z" fill="#1B1464"/>
<path d="M495.33 137.427L489.174 200.127L495.33 262.827C495.33 262.827 509.352 257.583 509.352 200.127C509.352 142.671 495.33 137.427 495.33 137.427Z" fill="#5F0439"/>
<path d="M319.77 270.066H72.5037C66.7468 270.066 62.0728 265.392 62.0728 259.635V147.915C62.0728 142.158 66.7468 137.484 72.5037 137.484H319.77C325.527 137.484 330.201 142.158 330.201 147.915V259.635C330.258 265.392 325.584 270.066 319.77 270.066Z" fill="#1B1464"/>
<path d="M308.199 279.3H84.1318C80.4268 279.3 77.4058 276.279 77.4058 272.574V196.65C77.4058 192.945 80.4268 189.924 84.1318 189.924H308.199C311.904 189.924 314.925 192.945 314.925 196.65V272.574C314.925 276.279 311.904 279.3 308.199 279.3Z" fill="white"/>
<path d="M97.4129 175.902C103.646 175.902 108.699 170.849 108.699 164.616C108.699 158.383 103.646 153.33 97.4129 153.33C91.1799 153.33 86.127 158.383 86.127 164.616C86.127 170.849 91.1799 175.902 97.4129 175.902Z" fill="#0E1235"/>
<path d="M95.2466 189.924H91.5986V279.3H95.2466V189.924Z" fill="#8EA3AE"/>
<path d="M112.347 189.924H108.699V279.3H112.347V189.924Z" fill="#8EA3AE"/>
<path d="M129.503 189.924H125.855V279.3H129.503V189.924Z" fill="#8EA3AE"/>
<path d="M146.604 189.924H142.956V279.3H146.604V189.924Z" fill="#8EA3AE"/>
<path d="M163.704 189.924H160.056V279.3H163.704V189.924Z" fill="#8EA3AE"/>
<path d="M180.86 189.924H177.212V279.3H180.86V189.924Z" fill="#8EA3AE"/>
<path d="M197.96 189.924H194.312V279.3H197.96V189.924Z" fill="#8EA3AE"/>
<path d="M215.118 189.924H211.47V279.3H215.118V189.924Z" fill="#8EA3AE"/>
<path d="M232.218 189.924H228.57V279.3H232.218V189.924Z" fill="#8EA3AE"/>
<path d="M249.375 189.924H245.727V279.3H249.375V189.924Z" fill="#8EA3AE"/>
<path d="M266.475 189.924H262.827V279.3H266.475V189.924Z" fill="#8EA3AE"/>
<path d="M283.631 189.924H279.983V279.3H283.631V189.924Z" fill="#8EA3AE"/>
<path d="M300.731 189.924H297.083V279.3H300.731V189.924Z" fill="#8EA3AE"/>
<path d="M131.157 283.746H124.203C122.721 283.746 121.467 282.549 121.467 281.01V189.924H133.836V281.01C133.836 282.549 132.639 283.746 131.157 283.746Z" fill="#0E1235"/>
<path d="M302.385 283.746H295.431C293.949 283.746 292.695 282.549 292.695 281.01V189.924H305.064V281.01C305.121 282.549 303.867 283.746 302.385 283.746Z" fill="#0E1235"/>
<path d="M182.514 283.746H175.56C174.078 283.746 172.824 282.549 172.824 281.01V189.924H185.25V281.01C185.25 282.549 183.996 283.746 182.514 283.746Z" fill="#0E1235"/>
<path d="M216.771 283.746H209.817C208.335 283.746 207.081 282.549 207.081 281.01V189.924H219.45V281.01C219.45 282.549 218.253 283.746 216.771 283.746Z" fill="#0E1235"/>
<path d="M268.127 283.746H261.174C259.692 283.746 258.438 282.549 258.438 281.01V189.924H270.806V281.01C270.863 282.549 269.666 283.746 268.127 283.746Z" fill="#0E1235"/>
<path d="M97.4129 172.254C103.646 172.254 108.699 167.201 108.699 160.968C108.699 154.735 103.646 149.682 97.4129 149.682C91.1799 149.682 86.127 154.735 86.127 160.968C86.127 167.201 91.1799 172.254 97.4129 172.254Z" fill="#FCEE21"/>
<path d="M102.486 157.434C103.336 157.434 104.025 156.745 104.025 155.895C104.025 155.045 103.336 154.356 102.486 154.356C101.636 154.356 100.947 155.045 100.947 155.895C100.947 156.745 101.636 157.434 102.486 157.434Z" fill="#5B161A"/>
<path d="M133.836 175.902C140.069 175.902 145.122 170.849 145.122 164.616C145.122 158.383 140.069 153.33 133.836 153.33C127.603 153.33 122.55 158.383 122.55 164.616C122.55 170.849 127.603 175.902 133.836 175.902Z" fill="#0E1235"/>
<path d="M133.836 172.254C140.069 172.254 145.122 167.201 145.122 160.968C145.122 154.735 140.069 149.682 133.836 149.682C127.603 149.682 122.55 154.735 122.55 160.968C122.55 167.201 127.603 172.254 133.836 172.254Z" fill="#ED174C"/>
<path d="M139.449 167.081C139.595 166.243 139.035 165.446 138.198 165.3C137.36 165.154 136.563 165.715 136.417 166.552C136.271 167.389 136.832 168.186 137.669 168.332C138.506 168.478 139.303 167.918 139.449 167.081Z" fill="#5B161A"/>
<path d="M190.266 151.62V152.361C190.266 153.444 189.354 154.356 188.271 154.356H164.388C163.305 154.356 162.393 153.444 162.393 152.361V151.62C162.393 150.537 163.248 149.625 164.388 149.625H188.271C189.354 149.625 190.266 150.537 190.266 151.62Z" fill="#FCEE21"/>
<path d="M190.266 160.569V161.31C190.266 162.393 189.354 163.305 188.271 163.305H164.388C163.305 163.305 162.393 162.45 162.393 161.31V160.569C162.393 159.486 163.248 158.574 164.388 158.574H188.271C189.354 158.574 190.266 159.486 190.266 160.569Z" fill="#FCEE21"/>
<path d="M190.266 169.518V170.259C190.266 171.342 189.354 172.254 188.271 172.254H164.388C163.305 172.254 162.393 171.399 162.393 170.259V169.518C162.393 168.435 163.248 167.523 164.388 167.523H188.271C189.354 167.523 190.266 168.435 190.266 169.518Z" fill="#FCEE21"/>
<path d="M190.266 151.62V152.361C190.266 153.444 189.354 154.356 188.271 154.356H176.358V149.682H188.271C189.354 149.625 190.266 150.537 190.266 151.62Z" fill="#ED174C"/>
<path d="M190.266 160.569V161.31C190.266 162.393 189.354 163.305 188.271 163.305H176.358V158.631H188.271C189.354 158.574 190.266 159.486 190.266 160.569Z" fill="#ED174C"/>
<path d="M190.266 169.518V170.259C190.266 171.342 189.354 172.254 188.271 172.254H176.358V167.58H188.271C189.354 167.523 190.266 168.435 190.266 169.518Z" fill="#ED174C"/>
<path d="M229.026 151.62V152.361C229.026 153.444 228.114 154.356 227.031 154.356H203.148C202.065 154.356 201.153 153.444 201.153 152.361V151.62C201.153 150.537 202.008 149.625 203.148 149.625H227.031C228.114 149.625 229.026 150.537 229.026 151.62Z" fill="#69CAD3"/>
<path d="M229.026 160.569V161.31C229.026 162.393 228.114 163.305 227.031 163.305H203.148C202.065 163.305 201.153 162.45 201.153 161.31V160.569C201.153 159.486 202.008 158.574 203.148 158.574H227.031C228.114 158.574 229.026 159.486 229.026 160.569Z" fill="#69CAD3"/>
<path d="M229.026 169.518V170.259C229.026 171.342 228.114 172.254 227.031 172.254H203.148C202.065 172.254 201.153 171.399 201.153 170.259V169.518C201.153 168.435 202.008 167.523 203.148 167.523H227.031C228.114 167.523 229.026 168.435 229.026 169.518Z" fill="#69CAD3"/>
<path d="M229.026 151.62V152.361C229.026 153.444 228.114 154.356 227.031 154.356H215.118V149.682H227.031C228.114 149.625 229.026 150.537 229.026 151.62Z" fill="#F15A24"/>
<path d="M229.026 160.569V161.31C229.026 162.393 228.114 163.305 227.031 163.305H215.118V158.631H227.031C228.114 158.574 229.026 159.486 229.026 160.569Z" fill="#F15A24"/>
<path d="M229.026 169.518V170.259C229.026 171.342 228.114 172.254 227.031 172.254H215.118V167.58H227.031C228.114 167.523 229.026 168.435 229.026 169.518Z" fill="#F15A24"/>
<path d="M267.729 151.62V152.361C267.729 153.444 266.817 154.356 265.734 154.356H241.851C240.768 154.356 239.856 153.444 239.856 152.361V151.62C239.856 150.537 240.711 149.625 241.851 149.625H265.734C266.874 149.625 267.729 150.537 267.729 151.62Z" fill="#ED174C"/>
<path d="M267.729 160.569V161.31C267.729 162.393 266.817 163.305 265.734 163.305H241.851C240.768 163.305 239.856 162.45 239.856 161.31V160.569C239.856 159.486 240.711 158.574 241.851 158.574H265.734C266.874 158.574 267.729 159.486 267.729 160.569Z" fill="#ED174C"/>
<path d="M267.729 169.518V170.259C267.729 171.342 266.817 172.254 265.734 172.254H241.851C240.768 172.254 239.856 171.399 239.856 170.259V169.518C239.856 168.435 240.711 167.523 241.851 167.523H265.734C266.874 167.523 267.729 168.435 267.729 169.518Z" fill="#ED174C"/>
<path d="M267.729 151.62V152.361C267.729 153.444 266.817 154.356 265.734 154.356H253.821V149.682H265.734C266.874 149.625 267.729 150.537 267.729 151.62Z" fill="#00A99D"/>
<path d="M267.729 160.569V161.31C267.729 162.393 266.817 163.305 265.734 163.305H253.821V158.631H265.734C266.874 158.574 267.729 159.486 267.729 160.569Z" fill="#00A99D"/>
<path d="M267.729 169.518V170.259C267.729 171.342 266.817 172.254 265.734 172.254H253.821V167.58H265.734C266.874 167.523 267.729 168.435 267.729 169.518Z" fill="#00A99D"/>
<path d="M283.631 153.843C284.796 153.843 285.74 152.899 285.74 151.734C285.74 150.569 284.796 149.625 283.631 149.625C282.467 149.625 281.522 150.569 281.522 151.734C281.522 152.899 282.467 153.843 283.631 153.843Z" fill="#0E1235"/>
<path d="M292.695 153.843C293.86 153.843 294.804 152.899 294.804 151.734C294.804 150.569 293.86 149.625 292.695 149.625C291.53 149.625 290.586 150.569 290.586 151.734C290.586 152.899 291.53 153.843 292.695 153.843Z" fill="#0E1235"/>
<path d="M301.815 153.843C302.979 153.843 303.924 152.899 303.924 151.734C303.924 150.569 302.979 149.625 301.815 149.625C300.65 149.625 299.706 150.569 299.706 151.734C299.706 152.899 300.65 153.843 301.815 153.843Z" fill="#0E1235"/>
<path d="M310.935 153.843C312.099 153.843 313.044 152.899 313.044 151.734C313.044 150.569 312.099 149.625 310.935 149.625C309.77 149.625 308.826 150.569 308.826 151.734C308.826 152.899 309.77 153.843 310.935 153.843Z" fill="#0E1235"/>
<path d="M283.631 160.683C284.796 160.683 285.74 159.739 285.74 158.574C285.74 157.409 284.796 156.465 283.631 156.465C282.467 156.465 281.522 157.409 281.522 158.574C281.522 159.739 282.467 160.683 283.631 160.683Z" fill="#0E1235"/>
<path d="M292.695 160.683C293.86 160.683 294.804 159.739 294.804 158.574C294.804 157.409 293.86 156.465 292.695 156.465C291.53 156.465 290.586 157.409 290.586 158.574C290.586 159.739 291.53 160.683 292.695 160.683Z" fill="#0E1235"/>
<path d="M301.815 160.683C302.979 160.683 303.924 159.739 303.924 158.574C303.924 157.409 302.979 156.465 301.815 156.465C300.65 156.465 299.706 157.409 299.706 158.574C299.706 159.739 300.65 160.683 301.815 160.683Z" fill="#0E1235"/>
<path d="M310.935 160.683C312.099 160.683 313.044 159.739 313.044 158.574C313.044 157.409 312.099 156.465 310.935 156.465C309.77 156.465 308.826 157.409 308.826 158.574C308.826 159.739 309.77 160.683 310.935 160.683Z" fill="#0E1235"/>
<path d="M283.631 167.58C284.796 167.58 285.74 166.636 285.74 165.471C285.74 164.306 284.796 163.362 283.631 163.362C282.467 163.362 281.522 164.306 281.522 165.471C281.522 166.636 282.467 167.58 283.631 167.58Z" fill="#0E1235"/>
<path d="M292.695 167.58C293.86 167.58 294.804 166.636 294.804 165.471C294.804 164.306 293.86 163.362 292.695 163.362C291.53 163.362 290.586 164.306 290.586 165.471C290.586 166.636 291.53 167.58 292.695 167.58Z" fill="#0E1235"/>
<path d="M301.815 167.58C302.979 167.58 303.924 166.636 303.924 165.471C303.924 164.306 302.979 163.362 301.815 163.362C300.65 163.362 299.706 164.306 299.706 165.471C299.706 166.636 300.65 167.58 301.815 167.58Z" fill="#0E1235"/>
<path d="M310.935 167.58C312.099 167.58 313.044 166.636 313.044 165.471C313.044 164.306 312.099 163.362 310.935 163.362C309.77 163.362 308.826 164.306 308.826 165.471C308.826 166.636 309.77 167.58 310.935 167.58Z" fill="#0E1235"/>
<path d="M283.631 174.42C284.796 174.42 285.74 173.476 285.74 172.311C285.74 171.146 284.796 170.202 283.631 170.202C282.467 170.202 281.522 171.146 281.522 172.311C281.522 173.476 282.467 174.42 283.631 174.42Z" fill="#0E1235"/>
<path d="M292.695 174.42C293.86 174.42 294.804 173.476 294.804 172.311C294.804 171.146 293.86 170.202 292.695 170.202C291.53 170.202 290.586 171.146 290.586 172.311C290.586 173.476 291.53 174.42 292.695 174.42Z" fill="#0E1235"/>
<path d="M301.815 174.42C302.979 174.42 303.924 173.476 303.924 172.311C303.924 171.146 302.979 170.202 301.815 170.202C300.65 170.202 299.706 171.146 299.706 172.311C299.706 173.476 300.65 174.42 301.815 174.42Z" fill="#0E1235"/>
<path d="M310.935 174.42C312.099 174.42 313.044 173.476 313.044 172.311C313.044 171.146 312.099 170.202 310.935 170.202C309.77 170.202 308.826 171.146 308.826 172.311C308.826 173.476 309.77 174.42 310.935 174.42Z" fill="#0E1235"/>
<path d="M316.635 214.548H75.6958V196.593C75.6958 192.888 78.6598 189.924 82.3648 189.924H309.966C313.671 189.924 316.635 192.888 316.635 196.593V214.548Z" fill="#140F4B"/>
<path d="M205.371 205.713H186.96C186.048 205.713 185.307 204.972 185.307 204.06V203.49C185.307 202.578 186.048 201.837 186.96 201.837H205.371C206.283 201.837 207.024 202.578 207.024 203.49V204.003C207.024 204.972 206.283 205.713 205.371 205.713Z" fill="#E0E9ED"/>
<path d="M495.33 262.827H380.475C374.661 262.827 369.93 258.096 369.93 252.282V147.972C369.93 142.158 374.661 137.427 380.475 137.427H495.33V262.827Z" fill="#ED174C"/>
<path d="M432.63 249.204C459.734 249.204 481.707 227.231 481.707 200.127C481.707 173.022 459.734 151.05 432.63 151.05C405.525 151.05 383.553 173.022 383.553 200.127C383.553 227.231 405.525 249.204 432.63 249.204Z" fill="#5F0439"/>
<path d="M432.63 210.33C438.265 210.33 442.833 205.762 442.833 200.127C442.833 194.492 438.265 189.924 432.63 189.924C426.995 189.924 422.427 194.492 422.427 200.127C422.427 205.762 426.995 210.33 432.63 210.33Z" fill="#A90C26"/>
<path d="M482.619 254.334C484.035 254.334 485.184 253.186 485.184 251.769C485.184 250.352 484.035 249.204 482.619 249.204C481.202 249.204 480.054 250.352 480.054 251.769C480.054 253.186 481.202 254.334 482.619 254.334Z" fill="#FCEE21"/>
<path d="M473.214 254.334C474.63 254.334 475.779 253.186 475.779 251.769C475.779 250.352 474.63 249.204 473.214 249.204C471.797 249.204 470.649 250.352 470.649 251.769C470.649 253.186 471.797 254.334 473.214 254.334Z" fill="#770C26"/>
<path d="M404.928 133.722H391.134C390.222 133.722 389.481 134.463 389.481 135.375V137.427H406.581V135.375C406.581 134.463 405.84 133.722 404.928 133.722Z" fill="#770C26"/>
<path d="M421.515 266.589H415.473C414.561 266.589 413.82 265.848 413.82 264.936V262.884H423.225V264.936C423.168 265.848 422.427 266.589 421.515 266.589Z" fill="#770C26"/>
<path d="M389.253 156.522H381.843C380.703 156.522 379.734 155.61 379.734 154.413V147.003C379.734 145.863 380.646 144.894 381.843 144.894H389.253C390.393 144.894 391.362 145.806 391.362 147.003V154.413C391.362 155.553 390.393 156.522 389.253 156.522Z" fill="#1B1464"/>
<path d="M733.533 137.427H574.674C569.43 137.427 565.155 141.702 565.155 146.946V253.365C565.155 258.609 569.43 262.884 574.674 262.884H733.533C738.777 262.884 743.052 258.609 743.052 253.365V146.946C743.052 141.702 738.834 137.427 733.533 137.427Z" fill="#140F4B"/>
<path d="M602.49 172.254H588.24C587.157 172.254 586.302 171.399 586.302 170.316V156.066C586.302 154.983 587.157 154.128 588.24 154.128H602.49C603.573 154.128 604.428 154.983 604.428 156.066V170.316C604.428 171.399 603.573 172.254 602.49 172.254Z" fill="#0A0826"/>
<path d="M600.837 170.373H586.587C585.504 170.373 584.649 169.518 584.649 168.435V154.185C584.649 153.102 585.504 152.247 586.587 152.247H600.837C601.92 152.247 602.775 153.102 602.775 154.185V168.435C602.718 169.518 601.863 170.373 600.837 170.373Z" fill="#0E1235"/>
<path d="M602.49 199.899H588.24C587.157 199.899 586.302 199.044 586.302 197.961V183.711C586.302 182.628 587.157 181.773 588.24 181.773H602.49C603.573 181.773 604.428 182.628 604.428 183.711V197.961C604.428 199.044 603.573 199.899 602.49 199.899Z" fill="#0A0826"/>
<path d="M600.837 198.018H586.587C585.504 198.018 584.649 197.163 584.649 196.08V181.83C584.649 180.747 585.504 179.892 586.587 179.892H600.837C601.92 179.892 602.775 180.747 602.775 181.83V196.08C602.718 197.163 601.863 198.018 600.837 198.018Z" fill="#FCEE21"/>
<path d="M602.49 227.601H588.24C587.157 227.601 586.302 226.746 586.302 225.663V211.413C586.302 210.33 587.157 209.475 588.24 209.475H602.49C603.573 209.475 604.428 210.33 604.428 211.413V225.663C604.428 226.746 603.573 227.601 602.49 227.601Z" fill="#0A0826"/>
<path d="M600.837 225.72H586.587C585.504 225.72 584.649 224.865 584.649 223.782V209.532C584.649 208.449 585.504 207.594 586.587 207.594H600.837C601.92 207.594 602.775 208.449 602.775 209.532V223.782C602.718 224.808 601.863 225.72 600.837 225.72Z" fill="#FCEE21"/>
<path d="M632.301 172.254H618.051C616.968 172.254 616.113 171.399 616.113 170.316V156.066C616.113 154.983 616.968 154.128 618.051 154.128H632.301C633.384 154.128 634.239 154.983 634.239 156.066V170.316C634.239 171.399 633.384 172.254 632.301 172.254Z" fill="#0A0826"/>
<path d="M630.648 170.373H616.398C615.315 170.373 614.46 169.518 614.46 168.435V154.185C614.46 153.102 615.315 152.247 616.398 152.247H630.648C631.731 152.247 632.586 153.102 632.586 154.185V168.435C632.529 169.518 631.674 170.373 630.648 170.373Z" fill="#00A99D"/>
<path d="M632.301 199.899H618.051C616.968 199.899 616.113 199.044 616.113 197.961V183.711C616.113 182.628 616.968 181.773 618.051 181.773H632.301C633.384 181.773 634.239 182.628 634.239 183.711V197.961C634.239 199.044 633.384 199.899 632.301 199.899Z" fill="#0A0826"/>
<path d="M630.648 198.018H616.398C615.315 198.018 614.46 197.163 614.46 196.08V181.83C614.46 180.747 615.315 179.892 616.398 179.892H630.648C631.731 179.892 632.586 180.747 632.586 181.83V196.08C632.529 197.163 631.674 198.018 630.648 198.018Z" fill="#ED174C"/>
<path d="M632.301 227.601H618.051C616.968 227.601 616.113 226.746 616.113 225.663V211.413C616.113 210.33 616.968 209.475 618.051 209.475H632.301C633.384 209.475 634.239 210.33 634.239 211.413V225.663C634.239 226.746 633.384 227.601 632.301 227.601Z" fill="#0A0826"/>
<path d="M630.648 225.72H616.398C615.315 225.72 614.46 224.865 614.46 223.782V209.532C614.46 208.449 615.315 207.594 616.398 207.594H630.648C631.731 207.594 632.586 208.449 632.586 209.532V223.782C632.529 224.808 631.674 225.72 630.648 225.72Z" fill="#00A99D"/>
<path d="M662.112 172.254H647.862C646.779 172.254 645.924 171.399 645.924 170.316V156.066C645.924 154.983 646.779 154.128 647.862 154.128H662.112C663.195 154.128 664.05 154.983 664.05 156.066V170.316C664.05 171.399 663.195 172.254 662.112 172.254Z" fill="#0A0826"/>
<path d="M660.459 170.373H646.209C645.126 170.373 644.271 169.518 644.271 168.435V154.185C644.271 153.102 645.126 152.247 646.209 152.247H660.459C661.542 152.247 662.397 153.102 662.397 154.185V168.435C662.34 169.518 661.485 170.373 660.459 170.373Z" fill="#FCEE21"/>
<path d="M662.112 199.899H647.862C646.779 199.899 645.924 199.044 645.924 197.961V183.711C645.924 182.628 646.779 181.773 647.862 181.773H662.112C663.195 181.773 664.05 182.628 664.05 183.711V197.961C664.05 199.044 663.195 199.899 662.112 199.899Z" fill="#0A0826"/>
<path d="M660.459 198.018H646.209C645.126 198.018 644.271 197.163 644.271 196.08V181.83C644.271 180.747 645.126 179.892 646.209 179.892H660.459C661.542 179.892 662.397 180.747 662.397 181.83V196.08C662.34 197.163 661.485 198.018 660.459 198.018Z" fill="#FCEE21"/>
<path d="M662.112 227.601H647.862C646.779 227.601 645.924 226.746 645.924 225.663V211.413C645.924 210.33 646.779 209.475 647.862 209.475H662.112C663.195 209.475 664.05 210.33 664.05 211.413V225.663C664.05 226.746 663.195 227.601 662.112 227.601Z" fill="#0A0826"/>
<path d="M660.459 225.72H646.209C645.126 225.72 644.271 224.865 644.271 223.782V209.532C644.271 208.449 645.126 207.594 646.209 207.594H660.459C661.542 207.594 662.397 208.449 662.397 209.532V223.782C662.34 224.808 661.485 225.72 660.459 225.72Z" fill="#0E1235"/>
<path d="M691.923 172.254H677.673C676.59 172.254 675.735 171.399 675.735 170.316V156.066C675.735 154.983 676.59 154.128 677.673 154.128H691.923C693.006 154.128 693.861 154.983 693.861 156.066V170.316C693.861 171.399 692.949 172.254 691.923 172.254Z" fill="#0A0826"/>
<path d="M690.213 170.373H675.963C674.88 170.373 674.025 169.518 674.025 168.435V154.185C674.025 153.102 674.88 152.247 675.963 152.247H690.213C691.296 152.247 692.151 153.102 692.151 154.185V168.435C692.151 169.518 691.296 170.373 690.213 170.373Z" fill="#ED174C"/>
<path d="M691.923 199.899H677.673C676.59 199.899 675.735 199.044 675.735 197.961V183.711C675.735 182.628 676.59 181.773 677.673 181.773H691.923C693.006 181.773 693.861 182.628 693.861 183.711V197.961C693.861 199.044 692.949 199.899 691.923 199.899Z" fill="#0A0826"/>
<path d="M690.213 198.018H675.963C674.88 198.018 674.025 197.163 674.025 196.08V181.83C674.025 180.747 674.88 179.892 675.963 179.892H690.213C691.296 179.892 692.151 180.747 692.151 181.83V196.08C692.151 197.163 691.296 198.018 690.213 198.018Z" fill="#0E1235"/>
<path d="M691.923 227.601H677.673C676.59 227.601 675.735 226.746 675.735 225.663V211.413C675.735 210.33 676.59 209.475 677.673 209.475H691.923C693.006 209.475 693.861 210.33 693.861 211.413V225.663C693.861 226.746 692.949 227.601 691.923 227.601Z" fill="#0A0826"/>
<path d="M690.213 225.72H675.963C674.88 225.72 674.025 224.865 674.025 223.782V209.532C674.025 208.449 674.88 207.594 675.963 207.594H690.213C691.296 207.594 692.151 208.449 692.151 209.532V223.782C692.151 224.808 691.296 225.72 690.213 225.72Z" fill="#ED174C"/>
<path d="M721.734 172.254H707.484C706.401 172.254 705.546 171.399 705.546 170.316V156.066C705.546 154.983 706.401 154.128 707.484 154.128H721.734C722.817 154.128 723.672 154.983 723.672 156.066V170.316C723.672 171.399 722.76 172.254 721.734 172.254Z" fill="#0A0826"/>
<path d="M720.024 170.373H705.774C704.691 170.373 703.836 169.518 703.836 168.435V154.185C703.836 153.102 704.691 152.247 705.774 152.247H720.024C721.107 152.247 721.962 153.102 721.962 154.185V168.435C721.962 169.518 721.107 170.373 720.024 170.373Z" fill="#00A99D"/>
<path d="M721.734 199.899H707.484C706.401 199.899 705.546 199.044 705.546 197.961V183.711C705.546 182.628 706.401 181.773 707.484 181.773H721.734C722.817 181.773 723.672 182.628 723.672 183.711V197.961C723.672 199.044 722.76 199.899 721.734 199.899Z" fill="#0A0826"/>
<path d="M720.024 198.018H705.774C704.691 198.018 703.836 197.163 703.836 196.08V181.83C703.836 180.747 704.691 179.892 705.774 179.892H720.024C721.107 179.892 721.962 180.747 721.962 181.83V196.08C721.962 197.163 721.107 198.018 720.024 198.018Z" fill="#FCEE21"/>
<path d="M721.734 227.601H707.484C706.401 227.601 705.546 226.746 705.546 225.663V211.413C705.546 210.33 706.401 209.475 707.484 209.475H721.734C722.817 209.475 723.672 210.33 723.672 211.413V225.663C723.672 226.746 722.76 227.601 721.734 227.601Z" fill="#0A0826"/>
<path d="M720.024 225.72H705.774C704.691 225.72 703.836 224.865 703.836 223.782V209.532C703.836 208.449 704.691 207.594 705.774 207.594H720.024C721.107 207.594 721.962 208.449 721.962 209.532V223.782C721.962 224.808 721.107 225.72 720.024 225.72Z" fill="#FCEE21"/>
<path d="M574.161 248.634H573.591C572.565 248.634 571.71 247.779 571.71 246.753V153.558C571.71 152.532 572.565 151.677 573.591 151.677H574.161C575.187 151.677 576.042 152.532 576.042 153.558V246.81C576.042 247.836 575.187 248.634 574.161 248.634Z" fill="#0A0826"/>
<path d="M734.103 248.634H734.673C735.699 248.634 736.554 247.779 736.554 246.753V153.558C736.554 152.532 735.699 151.677 734.673 151.677H734.103C733.077 151.677 732.222 152.532 732.222 153.558V246.81C732.222 247.836 733.077 248.634 734.103 248.634Z" fill="#0A0826"/>
<path d="M715.863 240.255V248.52C715.863 250.344 714.381 251.826 712.557 251.826H595.763C593.939 251.826 592.458 250.344 592.458 248.52V240.255C592.458 239.799 592.572 239.343 592.743 238.944C593.256 237.804 594.395 236.949 595.763 236.949H712.557C713.925 236.949 715.065 237.747 715.578 238.944C715.749 239.343 715.863 239.742 715.863 240.255Z" fill="#ED174C"/>
<path d="M715.578 238.944H592.686C593.199 237.804 594.339 236.949 595.707 236.949H712.5C713.868 236.949 715.065 237.747 715.578 238.944Z" fill="white"/>
<path d="M592.572 156.123H588.069C587.727 156.123 587.442 155.838 587.442 155.496V155.325C587.442 154.983 587.727 154.698 588.069 154.698H592.572C592.914 154.698 593.199 154.983 593.199 155.325V155.496C593.199 155.838 592.914 156.123 592.572 156.123Z" fill="white"/>
<path d="M622.896 185.592H618.393C618.051 185.592 617.766 185.307 617.766 184.965V184.794C617.766 184.452 618.051 184.167 618.393 184.167H622.896C623.238 184.167 623.523 184.452 623.523 184.794V184.965C623.466 185.307 623.238 185.592 622.896 185.592Z" fill="white"/>
<path d="M682.518 212.325H678.015C677.673 212.325 677.388 212.04 677.388 211.698V211.527C677.388 211.185 677.673 210.9 678.015 210.9H682.518C682.86 210.9 683.145 211.185 683.145 211.527V211.698C683.088 212.04 682.803 212.325 682.518 212.325Z" fill="white"/>
<path d="M712.272 157.548H707.769C707.427 157.548 707.142 157.263 707.142 156.921V156.75C707.142 156.408 707.427 156.123 707.769 156.123H712.272C712.614 156.123 712.899 156.408 712.899 156.75V156.921C712.899 157.263 712.614 157.548 712.272 157.548Z" fill="white"/>
<path d="M622.896 156.864H618.393C618.051 156.864 617.766 156.579 617.766 156.237V156.066C617.766 155.724 618.051 155.439 618.393 155.439H622.896C623.238 155.439 623.523 155.724 623.523 156.066V156.237C623.466 156.579 623.238 156.864 622.896 156.864Z" fill="white"/>
<path d="M258.438 421.8C258.438 475.209 215.859 518.586 162.792 519.954C161.937 519.954 161.082 520.011 160.227 520.011C157.605 520.011 154.983 519.897 152.418 519.726C147.744 519.384 143.184 518.643 138.738 517.674C135.489 516.933 132.354 516.078 129.219 515.052C124.887 513.627 120.669 511.86 116.679 509.865C113.715 508.383 110.751 506.73 107.958 504.963C80.3701 487.578 62.0161 456.855 62.0161 421.8C62.0161 367.593 105.963 323.589 160.227 323.589C214.491 323.589 258.438 367.536 258.438 421.8Z" fill="#FCEE21"/>
<path d="M160.284 462.726C182.887 462.726 201.21 444.403 201.21 421.8C201.21 399.197 182.887 380.874 160.284 380.874C137.681 380.874 119.358 399.197 119.358 421.8C119.358 444.403 137.681 462.726 160.284 462.726Z" fill="#F15A24"/>
<path d="M462.954 444.087H235.296C228 444.087 222.072 438.159 222.072 430.863V412.737C222.072 405.441 228 399.513 235.296 399.513H462.954V444.087Z" fill="#F15A24"/>
<path d="M518.472 453.264H466.089C459.705 453.264 454.461 448.077 454.461 441.636V401.907C454.461 395.523 459.648 390.279 466.089 390.279H518.472C524.856 390.279 530.1 395.466 530.1 401.907V441.636C530.043 448.077 524.856 453.264 518.472 453.264Z" fill="#FCEE21"/>
<path d="M513.741 439.755H471.903C468.768 439.755 466.203 437.19 466.203 434.055V409.488C466.203 406.353 468.768 403.788 471.903 403.788H513.741C516.876 403.788 519.441 406.353 519.441 409.488V434.055C519.441 437.247 516.876 439.755 513.741 439.755Z" fill="#F15A24"/>
<path d="M95.6459 448.077H91.1999C89.0909 448.077 87.3809 446.367 87.3809 444.258V399.285C87.3809 397.176 89.0909 395.466 91.1999 395.466H95.6459C97.7549 395.466 99.4649 397.176 99.4649 399.285V444.258C99.4649 446.367 97.7549 448.077 95.6459 448.077Z" fill="#1B1464"/>
<path d="M475.779 410.058H93.4229V413.022H475.779V410.058Z" fill="#0E1235"/>
<path d="M500.745 416.898H93.4229V419.862H500.745V416.898Z" fill="#0E1235"/>
<path d="M500.745 423.738H93.4229V426.702H500.745V423.738Z" fill="#0E1235"/>
<path d="M475.779 430.578H93.4229V433.542H475.779V430.578Z" fill="#0E1235"/>
<path d="M511.404 326.097V341.43L408.12 340.518L397.062 340.404L376.428 340.233C374.661 340.233 373.008 339.492 371.868 338.352C370.671 337.155 369.987 335.559 369.987 333.735C369.987 330.144 372.894 327.237 376.485 327.237L397.119 327.066L408.177 326.952L511.404 326.097Z" fill="#1B1464"/>
<path d="M408.12 327.009V340.518L397.005 340.404V327.066L408.12 327.009Z" fill="#ED174C"/>
<path d="M514.14 346.275H511.86C510.492 346.275 509.352 345.135 509.352 343.767V323.76C509.352 322.392 510.492 321.252 511.86 321.252H514.14C515.508 321.252 516.648 322.392 516.648 323.76V343.824C516.648 345.135 515.508 346.275 514.14 346.275Z" fill="#1B1464"/>
<path d="M584.649 322.392V345.135C584.649 350.778 580.032 355.395 574.389 355.395H524.286C524.058 355.395 523.83 355.395 523.602 355.395C518.244 355.053 514.026 350.607 514.026 345.135V322.392C514.026 316.977 518.244 312.474 523.602 312.132C523.83 312.132 524.058 312.132 524.286 312.132H574.389C580.032 312.132 584.649 316.692 584.649 322.392Z" fill="#161D21"/>
<g opacity="0.2">
<path opacity="0.2" d="M526.908 312.132V355.395H525.483C525.255 355.395 525.027 355.395 524.799 355.395V312.189C525.027 312.189 525.255 312.189 525.483 312.189H526.908V312.132Z" fill="#8EA3AE"/>
</g>
<g opacity="0.2">
<path opacity="0.2" d="M542.811 312.132H540.702V355.395H542.811V312.132Z" fill="#8EA3AE"/>
</g>
<g opacity="0.2">
<path opacity="0.2" d="M558.714 312.132H556.605V355.395H558.714V312.132Z" fill="#8EA3AE"/>
</g>
<g opacity="0.2">
<path opacity="0.2" d="M574.674 312.132H572.565V355.395H574.674V312.132Z" fill="#8EA3AE"/>
</g>
<path d="M129.789 473.1L116.736 509.865C113.772 508.383 110.808 506.73 108.015 504.963L119.358 473.1H129.789Z" fill="#ED174C"/>
<path d="M149.682 487.065L138.795 517.617C135.546 516.876 132.411 516.021 129.276 514.995L139.194 487.065H149.682Z" fill="#ED174C"/>
<path d="M169.575 501.03L162.849 519.954C161.994 519.954 161.139 520.011 160.284 520.011C157.662 520.011 155.04 519.897 152.475 519.726L159.087 501.087H169.575V501.03Z" fill="#ED174C"/>
<path d="M337.269 375.345V340.233C337.269 340.062 337.155 339.948 336.984 339.948H335.73C335.559 339.948 335.445 340.062 335.445 340.233V372.495C333.564 371.583 330.771 371.754 328.092 373.122C324.387 375.06 322.392 378.594 323.646 381.045C324.9 383.496 328.947 383.895 332.652 381.957C335.73 380.361 337.269 377.625 337.269 375.345Z" fill="#1B1464"/>
<path d="M319.428 505.248V470.136C319.428 469.965 319.314 469.851 319.143 469.851H317.889C317.718 469.851 317.604 469.965 317.604 470.136V502.398C315.723 501.486 312.93 501.657 310.251 503.025C306.546 504.963 304.551 508.497 305.805 510.948C307.059 513.399 311.106 513.798 314.811 511.86C317.946 510.264 319.485 507.528 319.428 505.248Z" fill="#1B1464"/>
<path d="M657.837 364.572V334.02C657.837 333.906 657.723 333.792 657.609 333.792H656.526C656.412 333.792 656.298 333.906 656.298 334.02V362.064C654.702 361.266 652.194 361.38 649.914 362.634C646.665 364.287 644.955 367.422 646.095 369.531C647.178 371.64 650.712 372.039 653.961 370.329C656.526 368.904 657.837 366.51 657.837 364.572Z" fill="#1B1464"/>
<path d="M267.558 304.551L249.888 308.142C249.774 308.142 249.66 308.313 249.66 308.427V310.764V313.101V330.714C248.349 330.087 246.411 330.201 244.53 331.17C241.965 332.538 240.597 334.989 241.452 336.699C242.364 338.409 245.157 338.694 247.722 337.326C249.888 336.186 251.313 334.305 251.256 332.709V313.044C251.256 312.93 251.37 312.816 251.484 312.816L267.216 309.624C267.387 309.567 267.501 309.738 267.501 309.852V326.268C266.19 325.641 264.252 325.755 262.371 326.724C259.806 328.092 258.438 330.543 259.293 332.253C260.205 333.963 262.998 334.248 265.563 332.88C267.729 331.74 269.04 329.859 268.869 328.263V304.665C268.869 304.494 268.698 304.323 268.527 304.38L267.558 304.551Z" fill="#1B1464"/>
<path d="M744.819 279.3L729.486 282.435C729.372 282.435 729.258 282.549 729.258 282.663V284.658V286.71V301.929C728.118 301.359 726.408 301.473 724.812 302.328C722.589 303.468 721.392 305.634 722.133 307.116C722.874 308.598 725.325 308.826 727.548 307.686C729.429 306.717 730.626 305.064 730.626 303.696V286.653C730.626 286.539 730.683 286.425 730.797 286.425L744.42 283.632C744.534 283.632 744.705 283.689 744.705 283.86V298.11C743.565 297.54 741.855 297.654 740.259 298.509C738.036 299.649 736.839 301.815 737.58 303.297C738.321 304.779 740.772 305.007 742.995 303.867C744.876 302.898 746.016 301.245 745.902 299.877V279.414C745.902 279.243 745.731 279.129 745.617 279.186L744.819 279.3Z" fill="#1B1464"/>
<path d="M390.963 284.316C390.849 283.005 390.336 281.808 389.538 280.953C388.17 279.414 386.175 278.958 384.294 279.129C381.615 279.414 378.651 282.15 376.257 279.414C376.086 279.129 375.516 279.072 375.231 279.129C375.003 279.186 375.003 279.471 375.003 279.756C375.003 279.813 375.003 279.87 375.003 279.984C375.003 279.984 375.003 279.984 375.003 280.041V303.354C373.635 302.67 371.526 302.784 369.531 303.81C366.795 305.235 365.313 307.857 366.225 309.681C367.137 311.505 370.158 311.79 372.951 310.365C375.231 309.168 376.371 307.116 376.371 305.463V284.943C378.48 285.342 380.76 284.373 382.356 283.746C383.61 283.233 384.921 282.264 386.232 282.321C388.227 282.435 387.999 284.601 388.512 286.425C388.683 287.052 389.025 287.565 389.481 287.793C391.134 288.477 391.077 285.57 390.963 284.316Z" fill="#1B1464"/>
<path d="M345.192 561.849C345.078 560.538 344.565 559.341 343.767 558.486C342.399 556.947 340.404 556.491 338.523 556.662C335.844 556.947 332.88 559.683 330.486 556.947C330.315 556.662 329.745 556.605 329.46 556.662C329.232 556.719 329.232 557.004 329.232 557.289C329.232 557.346 329.232 557.403 329.232 557.517C329.232 557.517 329.232 557.517 329.232 557.574V580.887C327.864 580.203 325.755 580.317 323.76 581.343C321.024 582.768 319.542 585.39 320.454 587.214C321.423 589.038 324.387 589.323 327.18 587.898C329.46 586.701 330.6 584.649 330.6 582.996V562.476C332.709 562.875 334.989 561.906 336.585 561.279C337.839 560.766 339.15 559.797 340.461 559.854C342.456 559.968 342.228 562.134 342.741 563.958C342.912 564.585 343.254 565.098 343.71 565.326C345.42 566.01 345.363 563.046 345.192 561.849Z" fill="#1B1464"/>
<path d="M586.872 430.122C586.701 428.469 586.074 426.987 585.105 425.904C583.338 423.966 580.887 423.396 578.55 423.681C575.187 424.023 571.482 427.443 568.518 424.08C568.29 423.738 567.606 423.624 567.207 423.738C566.922 423.852 566.922 424.194 566.922 424.479C566.922 424.536 566.922 424.65 566.922 424.764C566.922 424.764 566.922 424.764 566.922 424.821V453.948C565.212 453.093 562.59 453.264 560.082 454.518C556.662 456.285 554.781 459.591 555.978 461.871C557.175 464.151 560.88 464.55 564.357 462.726C567.207 461.244 568.632 458.679 568.632 456.57V430.92C571.254 431.433 574.161 430.236 576.099 429.381C577.638 428.754 579.291 427.5 581.001 427.614C583.452 427.728 583.167 430.464 583.851 432.744C584.079 433.485 584.478 434.169 585.105 434.454C587.157 435.309 587.043 431.661 586.872 430.122Z" fill="#1B1464"/>
<path d="M651.225 517.731C651.054 516.078 650.427 514.596 649.458 513.513C647.691 511.575 645.24 511.005 642.903 511.29C639.54 511.632 635.835 515.052 632.871 511.689C632.643 511.347 631.959 511.233 631.56 511.347C631.275 511.461 631.275 511.803 631.275 512.088C631.275 512.145 631.275 512.259 631.275 512.373C631.275 512.373 631.275 512.373 631.275 512.43V541.557C629.565 540.702 626.943 540.873 624.435 542.127C621.015 543.894 619.134 547.2 620.331 549.48C621.528 551.76 625.233 552.159 628.71 550.335C631.56 548.853 632.985 546.288 632.985 544.179V518.529C635.607 519.042 638.514 517.845 640.452 516.99C641.991 516.363 643.644 515.109 645.354 515.223C647.805 515.337 647.52 518.073 648.204 520.353C648.432 521.094 648.831 521.778 649.458 522.063C651.453 522.918 651.396 519.27 651.225 517.731Z" fill="#1B1464"/>
<path d="M550.506 190.494C550.392 189.354 549.936 188.328 549.309 187.53C548.112 186.162 546.402 185.82 544.749 185.991C542.412 186.219 539.847 188.613 537.795 186.276C537.624 186.048 537.168 185.991 536.883 186.048C536.655 186.105 536.655 186.39 536.655 186.561C536.655 186.618 536.655 186.675 536.655 186.732V206.967C535.458 206.397 533.634 206.454 531.924 207.366C529.53 208.62 528.276 210.9 529.074 212.496C529.872 214.092 532.494 214.32 534.888 213.066C536.883 212.04 537.852 210.273 537.852 208.791V190.95C539.676 191.292 541.671 190.494 543.039 189.924C544.122 189.468 545.262 188.613 546.402 188.67C548.112 188.784 547.941 190.665 548.397 192.261C548.568 192.774 548.853 193.287 549.252 193.458C550.677 194.085 550.62 191.577 550.506 190.494Z" fill="#1B1464"/>
<path d="M331.113 304.95L332.139 307.059C332.367 307.515 332.823 307.857 333.336 307.914L335.616 308.256C336.927 308.427 337.44 310.08 336.528 310.992L334.875 312.645C334.476 312.987 334.305 313.557 334.419 314.07L334.818 316.35C335.046 317.661 333.678 318.687 332.481 318.06L330.429 316.977C329.973 316.749 329.403 316.749 328.947 316.977L326.895 318.06C325.698 318.687 324.33 317.661 324.558 316.35L324.957 314.07C325.071 313.557 324.9 312.987 324.501 312.645L322.848 310.992C321.879 310.08 322.392 308.427 323.76 308.256L326.04 307.914C326.553 307.857 327.009 307.515 327.237 307.059L328.263 304.95C328.833 303.753 330.543 303.753 331.113 304.95Z" fill="#FCEE21"/>
<path d="M628.197 438.045L629.394 440.553C629.679 441.123 630.192 441.522 630.819 441.579L633.555 441.978C635.151 442.206 635.778 444.144 634.638 445.227L632.643 447.165C632.187 447.621 631.959 448.248 632.073 448.875L632.529 451.611C632.814 453.15 631.161 454.347 629.736 453.606L627.285 452.295C626.715 452.01 626.088 452.01 625.518 452.295L623.067 453.606C621.642 454.347 620.046 453.15 620.274 451.611L620.73 448.875C620.844 448.248 620.616 447.621 620.16 447.165L618.165 445.227C617.025 444.144 617.652 442.206 619.248 441.978L621.984 441.579C622.611 441.465 623.124 441.123 623.409 440.553L624.606 438.045C625.461 436.62 627.456 436.62 628.197 438.045Z" fill="#FCEE21"/>
<path d="M274.227 517.788L275.652 520.638C275.994 521.265 276.621 521.721 277.305 521.835L280.497 522.291C282.321 522.576 283.062 524.799 281.751 526.053L279.471 528.276C278.958 528.789 278.73 529.53 278.844 530.214L279.357 533.349C279.642 535.173 277.761 536.541 276.165 535.686L273.315 534.204C272.688 533.862 271.89 533.862 271.263 534.204L268.413 535.686C266.817 536.541 264.879 535.173 265.221 533.349L265.734 530.214C265.848 529.473 265.62 528.789 265.107 528.276L262.827 526.053C261.516 524.799 262.257 522.519 264.081 522.291L267.273 521.835C268.014 521.721 268.641 521.265 268.926 520.638L270.351 517.788C271.035 516.135 273.372 516.135 274.227 517.788Z" fill="#FCEE21"/>
<path d="M181.659 634.239L183.084 637.089C183.426 637.716 184.053 638.172 184.737 638.286L187.929 638.742C189.753 639.027 190.494 641.25 189.183 642.504L186.903 644.727C186.39 645.24 186.162 645.981 186.276 646.665L186.789 649.8C187.074 651.624 185.193 652.992 183.597 652.137L180.747 650.655C180.12 650.313 179.322 650.313 178.695 650.655L175.845 652.137C174.249 652.992 172.311 651.624 172.653 649.8L173.166 646.665C173.28 645.924 173.052 645.24 172.539 644.727L170.259 642.504C168.948 641.25 169.689 638.97 171.513 638.742L174.705 638.286C175.446 638.172 176.073 637.716 176.358 637.089L177.783 634.239C178.524 632.586 180.861 632.586 181.659 634.239Z" fill="#FCEE21"/>
<path d="M64.0679 306.66L65.4929 309.51C65.8349 310.137 66.4619 310.593 67.1459 310.707L70.3379 311.163C72.1619 311.448 72.9029 313.671 71.5919 314.925L69.3119 317.148C68.7989 317.661 68.5709 318.402 68.6849 319.086L69.1979 322.221C69.4829 324.045 67.6019 325.413 66.0059 324.558L63.1559 323.076C62.5289 322.734 61.7309 322.734 61.1039 323.076L58.2539 324.558C56.6579 325.413 54.7199 324.045 55.0619 322.221L55.5749 319.086C55.6889 318.345 55.4609 317.661 54.9479 317.148L52.6679 314.925C51.3569 313.671 52.0979 311.391 53.9219 311.163L57.1139 310.707C57.8549 310.593 58.4819 310.137 58.7669 309.51L60.1919 306.66C60.8759 305.007 63.2129 305.007 64.0679 306.66Z" fill="#FCEE21"/>
<path d="M535.686 242.478L536.712 244.587C536.94 245.043 537.396 245.385 537.909 245.442L540.189 245.784C541.5 245.955 542.013 247.608 541.101 248.52L539.448 250.173C539.049 250.515 538.878 251.085 538.992 251.598L539.391 253.878C539.619 255.189 538.251 256.215 537.054 255.588L535.002 254.505C534.546 254.277 533.976 254.277 533.52 254.505L531.468 255.588C530.271 256.215 528.903 255.189 529.131 253.878L529.53 251.598C529.644 251.085 529.473 250.515 529.074 250.173L527.421 248.52C526.452 247.608 526.965 245.955 528.333 245.784L530.613 245.442C531.126 245.385 531.582 245.043 531.81 244.587L532.836 242.478C533.406 241.281 535.116 241.281 535.686 242.478Z" fill="#FCEE21"/>
<path d="M208.506 301.872L209.532 303.981C209.76 304.437 210.216 304.779 210.729 304.836L213.009 305.178C214.32 305.349 214.833 307.002 213.921 307.914L212.268 309.567C211.869 309.909 211.698 310.479 211.812 310.992L212.211 313.272C212.439 314.583 211.071 315.609 209.874 314.982L207.822 313.899C207.366 313.671 206.796 313.671 206.34 313.899L204.288 314.982C203.091 315.609 201.723 314.583 201.951 313.272L202.35 310.992C202.464 310.479 202.293 309.909 201.894 309.567L200.241 307.914C199.272 307.002 199.785 305.349 201.153 305.178L203.433 304.836C203.946 304.779 204.402 304.437 204.63 303.981L205.656 301.872C206.226 300.675 207.936 300.675 208.506 301.872Z" fill="#ED174C"/>
<path d="M373.977 360.582L375.345 363.318C375.63 363.945 376.257 364.401 376.941 364.458L379.962 364.914C381.672 365.142 382.413 367.308 381.159 368.505L378.993 370.614C378.48 371.127 378.252 371.811 378.366 372.495L378.879 375.516C379.164 377.226 377.34 378.537 375.801 377.739L373.122 376.314C372.495 375.972 371.754 375.972 371.184 376.314L368.505 377.739C366.966 378.537 365.142 377.226 365.427 375.516L365.94 372.495C366.054 371.811 365.826 371.127 365.313 370.614L363.147 368.505C361.893 367.308 362.577 365.142 364.344 364.914L367.365 364.458C368.049 364.344 368.619 363.945 368.961 363.318L370.329 360.582C370.956 358.986 373.179 358.986 373.977 360.582Z" fill="#ED174C"/>
<path d="M351.975 195.168L353.058 197.391C353.286 197.904 353.799 198.246 354.369 198.36L356.877 198.702C358.302 198.93 358.872 200.64 357.846 201.666L356.022 203.433C355.623 203.832 355.452 204.402 355.509 204.972L355.908 207.423C356.136 208.848 354.654 209.931 353.4 209.247L351.177 208.107C350.664 207.822 350.094 207.822 349.581 208.107L347.358 209.247C346.104 209.931 344.622 208.848 344.85 207.423L345.249 204.972C345.363 204.402 345.135 203.832 344.736 203.433L342.912 201.666C341.886 200.64 342.456 198.93 343.881 198.702L346.389 198.36C346.959 198.303 347.415 197.904 347.7 197.391L348.783 195.168C349.524 193.857 351.348 193.857 351.975 195.168Z" fill="#ED174C"/>
<path d="M675.621 285.057L676.704 287.28C676.932 287.793 677.445 288.135 678.015 288.249L680.523 288.591C681.948 288.819 682.518 290.529 681.492 291.555L679.668 293.322C679.269 293.721 679.098 294.291 679.155 294.861L679.554 297.312C679.782 298.737 678.3 299.82 677.046 299.136L674.823 297.996C674.31 297.711 673.74 297.711 673.227 297.996L671.004 299.136C669.75 299.82 668.268 298.737 668.496 297.312L668.895 294.861C669.009 294.291 668.781 293.721 668.382 293.322L666.558 291.555C665.532 290.529 666.102 288.819 667.527 288.591L670.035 288.249C670.605 288.192 671.061 287.793 671.346 287.28L672.429 285.057C673.113 283.746 674.994 283.746 675.621 285.057Z" fill="#ED174C"/>
<path d="M600.837 380.19L602.775 384.18C603.231 385.092 604.086 385.719 605.055 385.833L609.444 386.46C611.952 386.802 612.978 389.88 611.154 391.704L607.962 394.782C607.221 395.466 606.936 396.492 607.107 397.461L607.848 401.85C608.304 404.358 605.682 406.239 603.402 405.099L599.469 403.047C598.557 402.591 597.531 402.591 596.619 403.047L592.686 405.099C590.463 406.296 587.841 404.358 588.24 401.85L588.981 397.461C589.152 396.492 588.81 395.466 588.126 394.782L584.934 391.704C583.11 389.937 584.136 386.859 586.644 386.46L591.033 385.833C592.002 385.662 592.914 385.035 593.313 384.18L595.251 380.19C596.505 377.91 599.697 377.91 600.837 380.19Z" fill="#ED174C"/>
<path d="M731.31 518.187L732.963 521.55C733.362 522.291 734.046 522.861 734.901 522.975L738.606 523.488C740.715 523.773 741.57 526.395 740.031 527.934L737.352 530.556C736.725 531.126 736.44 532.038 736.611 532.836L737.238 536.541C737.58 538.65 735.357 540.303 733.476 539.277L730.17 537.51C729.429 537.111 728.517 537.111 727.776 537.51L724.47 539.277C722.589 540.303 720.366 538.65 720.708 536.541L721.335 532.836C721.506 531.981 721.221 531.126 720.594 530.556L717.915 527.934C716.376 526.452 717.231 523.83 719.34 523.488L723.045 522.975C723.9 522.861 724.641 522.348 724.983 521.55L726.636 518.187C727.605 516.249 730.398 516.249 731.31 518.187Z" fill="#ED174C"/>
<path d="M622.782 579.69L624.72 583.68C625.176 584.592 626.031 585.219 627 585.333L631.389 585.96C633.897 586.302 634.923 589.38 633.099 591.204L629.907 594.282C629.166 594.966 628.881 595.992 629.052 596.961L629.793 601.35C630.249 603.858 627.627 605.739 625.347 604.599L621.414 602.547C620.502 602.091 619.476 602.091 618.564 602.547L614.631 604.599C612.408 605.796 609.786 603.858 610.185 601.35L610.926 596.961C611.097 595.992 610.755 594.966 610.071 594.282L606.879 591.204C605.055 589.437 606.081 586.359 608.589 585.96L612.978 585.333C613.947 585.162 614.859 584.535 615.258 583.68L617.196 579.69C618.393 577.467 621.642 577.467 622.782 579.69Z" fill="#FCEE21"/>
<path d="M80.0849 528.96L82.0229 532.95C82.4789 533.862 83.3339 534.489 84.3029 534.603L88.6919 535.23C91.1999 535.572 92.2259 538.65 90.4019 540.474L87.2099 543.552C86.4689 544.236 86.1839 545.262 86.3549 546.231L87.0959 550.62C87.5519 553.128 84.9299 555.009 82.6499 553.869L78.7169 551.817C77.8049 551.361 76.7789 551.361 75.8669 551.817L71.9339 553.869C69.7109 555.066 67.0889 553.128 67.4879 550.62L68.2289 546.231C68.3999 545.262 68.0579 544.236 67.3739 543.552L64.1819 540.474C62.3579 538.707 63.3839 535.629 65.8919 535.23L70.2809 534.603C71.2499 534.432 72.1619 533.805 72.5609 532.95L74.4989 528.96C75.7529 526.68 79.0019 526.68 80.0849 528.96Z" fill="#ED174C"/>
<path d="M469.566 292.866L470.934 295.602C471.219 296.229 471.846 296.685 472.53 296.742L475.551 297.198C477.261 297.426 478.002 299.592 476.748 300.789L474.582 302.898C474.069 303.411 473.841 304.095 473.955 304.779L474.468 307.8C474.753 309.51 472.929 310.821 471.39 310.023L468.711 308.598C468.084 308.256 467.343 308.256 466.773 308.598L464.094 310.023C462.555 310.821 460.731 309.51 461.016 307.8L461.529 304.779C461.643 304.095 461.415 303.411 460.902 302.898L458.736 300.789C457.482 299.592 458.166 297.426 459.933 297.198L462.954 296.742C463.638 296.628 464.208 296.229 464.55 295.602L465.918 292.866C466.602 291.327 468.825 291.327 469.566 292.866Z" fill="#ED174C"/>
<path fill-rule="evenodd" clip-rule="evenodd" d="M671.061 380.247C671.061 382.983 673.284 385.149 675.963 385.149C673.227 385.149 671.061 387.372 671.061 390.051C671.061 392.787 673.284 394.953 675.963 394.953H671.061C668.325 394.953 666.159 397.176 666.159 399.855C666.159 402.591 668.382 404.757 671.061 404.757V434.226V439.128H700.53V434.226V404.757C703.266 404.757 705.432 402.534 705.432 399.855C705.432 397.119 703.209 394.953 700.53 394.953H695.628C698.364 394.953 700.53 392.73 700.53 390.051C700.53 387.315 698.307 385.149 695.628 385.149C698.364 385.149 700.53 382.926 700.53 380.247C700.53 377.511 698.307 375.345 695.628 375.345H675.963C673.227 375.288 671.061 377.511 671.061 380.247Z" fill="#ED174C"/>
<path fill-rule="evenodd" clip-rule="evenodd" d="M685.766 375.288H695.571C698.25 375.288 700.473 377.511 700.473 380.19C700.473 382.869 698.25 385.092 695.571 385.092C698.25 385.092 700.473 387.315 700.473 389.994C700.473 392.673 698.25 394.896 695.571 394.896H700.473C703.152 394.896 705.375 397.119 705.375 399.798C705.375 402.477 703.152 404.7 700.473 404.7V439.071H685.709V375.288H685.766Z" fill="#B21139"/>
<path d="M695.628 439.185H675.963V635.721H695.628V439.185Z" fill="#ED174C"/>
<path fill-rule="evenodd" clip-rule="evenodd" d="M685.767 611.154L675.963 620.958V635.664H695.628V444.087H685.767V611.154Z" fill="#B21139"/>
<path d="M685.767 423.225C687.813 423.225 689.472 421.566 689.472 419.52C689.472 417.474 687.813 415.815 685.767 415.815C683.721 415.815 682.062 417.474 682.062 419.52C682.062 421.566 683.721 423.225 685.767 423.225Z" fill="#180316"/>
<path d="M685.767 457.596C687.813 457.596 689.472 455.937 689.472 453.891C689.472 451.845 687.813 450.186 685.767 450.186C683.721 450.186 682.062 451.845 682.062 453.891C682.062 455.937 683.721 457.596 685.767 457.596Z" fill="#180316"/>
<path d="M685.767 472.359C687.813 472.359 689.472 470.7 689.472 468.654C689.472 466.608 687.813 464.949 685.767 464.949C683.721 464.949 682.062 466.608 682.062 468.654C682.062 470.7 683.721 472.359 685.767 472.359Z" fill="#180316"/>
<path d="M685.767 487.122C687.813 487.122 689.472 485.463 689.472 483.417C689.472 481.371 687.813 479.712 685.767 479.712C683.721 479.712 682.062 481.371 682.062 483.417C682.062 485.463 683.721 487.122 685.767 487.122Z" fill="#180316"/>
<path d="M685.767 501.828C687.813 501.828 689.472 500.169 689.472 498.123C689.472 496.077 687.813 494.418 685.767 494.418C683.721 494.418 682.062 496.077 682.062 498.123C682.062 500.169 683.721 501.828 685.767 501.828Z" fill="#180316"/>
<path d="M685.767 516.591C687.813 516.591 689.472 514.932 689.472 512.886C689.472 510.84 687.813 509.181 685.767 509.181C683.721 509.181 682.062 510.84 682.062 512.886C682.062 514.932 683.721 516.591 685.767 516.591Z" fill="#180316"/>
<path d="M685.767 531.297C687.813 531.297 689.472 529.638 689.472 527.592C689.472 525.546 687.813 523.887 685.767 523.887C683.721 523.887 682.062 525.546 682.062 527.592C682.062 529.638 683.721 531.297 685.767 531.297Z" fill="#180316"/>
<path d="M685.767 546.06C687.813 546.06 689.472 544.401 689.472 542.355C689.472 540.309 687.813 538.65 685.767 538.65C683.721 538.65 682.062 540.309 682.062 542.355C682.062 544.401 683.721 546.06 685.767 546.06Z" fill="#180316"/>
<path fill-rule="evenodd" clip-rule="evenodd" d="M685.767 625.86C688.446 625.86 690.669 628.083 690.669 630.762H680.865C680.865 628.083 683.088 625.86 685.767 625.86Z" fill="#180316"/>
<path fill-rule="evenodd" clip-rule="evenodd" d="M666.159 439.185C666.159 441.921 668.382 444.087 671.061 444.087H700.53C703.266 444.087 705.432 441.864 705.432 439.185C705.432 436.449 703.209 434.283 700.53 434.283H671.061C668.325 434.283 666.159 436.449 666.159 439.185Z" fill="#FCEE21"/>
<path fill-rule="evenodd" clip-rule="evenodd" d="M666.159 321.252C666.159 323.988 668.382 326.154 671.061 326.154H675.963C673.227 326.154 671.061 328.377 671.061 331.056C671.061 331.398 671.118 331.74 671.175 332.082L675.963 375.231H695.628L700.416 332.082C700.473 331.74 700.53 331.398 700.53 331.056C700.53 328.32 698.307 326.154 695.628 326.154H700.53C703.266 326.154 705.432 323.931 705.432 321.252C705.432 318.516 703.209 316.35 700.53 316.35H671.061C668.325 316.35 666.159 318.573 666.159 321.252Z" fill="#FCEE21"/>
<path fill-rule="evenodd" clip-rule="evenodd" d="M671.061 557.061C671.061 559.797 673.284 561.963 675.963 561.963C670.548 561.963 666.159 566.352 666.159 571.767C666.159 577.182 670.548 581.571 675.963 581.571C673.227 581.571 671.061 583.794 671.061 586.473C671.061 589.209 673.284 591.375 675.963 591.375H695.628C698.364 591.375 700.53 589.152 700.53 586.473C700.53 583.737 698.307 581.571 695.628 581.571C701.043 581.571 705.432 577.182 705.432 571.767C705.432 566.352 701.043 561.963 695.628 561.963C698.364 561.963 700.53 559.74 700.53 557.061C700.53 554.325 698.307 552.159 695.628 552.159H675.963C673.227 552.159 671.061 554.382 671.061 557.061Z" fill="#FCEE21"/>
<path fill-rule="evenodd" clip-rule="evenodd" d="M671.061 635.664C671.061 636.12 671.118 636.519 671.232 636.918L674.766 661.656C675.45 666.501 679.611 670.092 684.513 670.092H687.135C692.037 670.092 696.198 666.501 696.882 661.656L700.416 636.918C700.53 636.519 700.587 636.12 700.587 635.664C700.587 632.928 698.364 630.762 695.685 630.762H676.02C673.227 630.762 671.061 632.985 671.061 635.664Z" fill="#ED174C"/>
<path fill-rule="evenodd" clip-rule="evenodd" d="M685.767 670.092H687.078C691.98 670.092 696.141 666.501 696.825 661.656L700.359 636.918C700.473 636.519 700.53 636.12 700.53 635.664C700.53 632.928 698.307 630.762 695.628 630.762H685.824V670.092H685.767Z" fill="#B21139"/>
<path fill-rule="evenodd" clip-rule="evenodd" d="M685.767 591.489H695.571C698.307 591.489 700.473 589.266 700.473 586.587C700.473 583.851 698.25 581.685 695.571 581.685C700.986 581.685 705.375 577.296 705.375 571.881C705.375 566.466 700.986 562.077 695.571 562.077C698.307 562.077 700.473 559.854 700.473 557.175C700.473 554.439 698.25 552.273 695.571 552.273H685.767V591.489Z" fill="#E57C00"/>
<path fill-rule="evenodd" clip-rule="evenodd" d="M685.767 444.087H700.53C703.266 444.087 705.432 441.864 705.432 439.185C705.432 436.449 703.209 434.283 700.53 434.283H685.767V444.087Z" fill="#E57C00"/>
<path fill-rule="evenodd" clip-rule="evenodd" d="M685.766 375.288H695.571L700.358 332.139C700.415 331.797 700.473 331.455 700.473 331.113C700.473 328.377 698.25 326.211 695.571 326.211H700.473C703.209 326.211 705.375 323.988 705.375 321.309C705.375 318.573 703.152 316.407 700.473 316.407H685.709V375.288H685.766Z" fill="#E57C00"/>
<path d="M492.594 154.698L494.703 159.03C495.216 159.999 496.128 160.683 497.211 160.854L501.999 161.538C504.735 161.937 505.818 165.3 503.823 167.238L500.346 170.601C499.548 171.342 499.206 172.482 499.377 173.565L500.175 178.296C500.631 181.032 497.781 183.084 495.33 181.83L491.055 179.607C490.086 179.094 488.946 179.094 487.977 179.607L483.702 181.83C481.251 183.141 478.401 181.032 478.857 178.296L479.655 173.565C479.826 172.482 479.484 171.399 478.686 170.601L475.209 167.238C473.214 165.3 474.297 161.937 477.033 161.538L481.821 160.854C482.904 160.683 483.873 159.999 484.329 159.03L486.438 154.698C487.806 152.247 491.397 152.247 492.594 154.698Z" fill="#FCEE21"/>
<path d="M577.182 533.919H351.12V547.428H577.182V533.919Z" fill="#5F0439"/>
<path d="M577.182 645.696H351.12V659.205H577.182V645.696Z" fill="#5F0439"/>
<path d="M566.01 547.428H362.349V645.696H566.01V547.428Z" fill="#ED174C"/>
<g opacity="0.3">
<g opacity="0.3">
<path opacity="0.3" d="M404.187 547.428H394.269V645.696H404.187V547.428Z" fill="#5F0439"/>
</g>
<g opacity="0.3">
<path opacity="0.3" d="M449.958 547.428H440.04V645.696H449.958V547.428Z" fill="#5F0439"/>
</g>
<g opacity="0.3">
<path opacity="0.3" d="M495.786 547.428H485.868V645.696H495.786V547.428Z" fill="#5F0439"/>
</g>
<g opacity="0.3">
<path opacity="0.3" d="M541.557 547.428H531.639V645.696H541.557V547.428Z" fill="#5F0439"/>
</g>
</g>
<path d="M400.424 547.428H390.506V645.696H400.424V547.428Z" fill="#FCEE21"/>
<path d="M446.195 547.428H436.277V645.696H446.195V547.428Z" fill="#FCEE21"/>
<path d="M492.024 547.428H482.105V645.696H492.024V547.428Z" fill="#FCEE21"/>
<path d="M537.795 547.428H527.876V645.696H537.795V547.428Z" fill="#FCEE21"/>
<g opacity="0.6">
<path opacity="0.6" d="M371.868 547.428H362.349V645.696H371.868V547.428Z" fill="#F7F1DA"/>
</g>
<g opacity="0.6">
<path opacity="0.6" d="M565.667 547.428H556.148V645.696H565.667V547.428Z" fill="#F7F1DA"/>
</g>
<path d="M577.182 527.991H351.12V533.919H577.182V527.991Z" fill="#ED174C"/>
<path d="M286.368 577.581L80.826 578.208C77.463 578.208 74.7271 576.954 74.7271 575.472C74.7271 573.933 77.463 572.679 80.826 572.736L286.368 573.363V577.581Z" fill="#F15A24"/>
<path d="M286.539 579.291C291.607 579.291 295.716 577.581 295.716 575.472C295.716 573.363 291.607 571.653 286.539 571.653C281.471 571.653 277.362 573.363 277.362 575.472C277.362 577.581 281.471 579.291 286.539 579.291Z" fill="#F15A24"/>
<path d="M286.368 607.221L80.826 607.848C77.463 607.848 74.7271 606.594 74.7271 605.112C74.7271 603.573 77.463 602.319 80.826 602.376L286.368 603.003V607.221Z" fill="#F15A24"/>
<path d="M286.539 608.874C291.607 608.874 295.716 607.164 295.716 605.055C295.716 602.946 291.607 601.236 286.539 601.236C281.471 601.236 277.362 602.946 277.362 605.055C277.362 607.164 281.471 608.874 286.539 608.874Z" fill="#F15A24"/>
<path d="M232.446 573.135H228.855V559.398C228.855 551.304 222.3 544.749 214.206 544.749C204.174 544.749 195.966 536.541 195.966 526.509V498.579H199.557V526.509C199.557 534.603 206.112 541.158 214.206 541.158C224.238 541.158 232.446 549.366 232.446 559.398V573.135Z" fill="#FCEE21"/>
</svg>
